<svg width="4104" height="2733" viewBox="0 0 4104 2733" fill="none" xmlns="http://www.w3.org/2000/svg">
<g filter="url(#filter0_dd_7_17)">
<path d="M79.0692 1892.01L4.00024 1935V0H4100V1180L4091.49 1188.19L4072.48 1205.69L4056.46 1213.69L4036.95 1231.18L4017.93 1249.68L3998.91 1258.18L3992.41 1275.67L3972.89 1269.67L3920.85 1323.16L3893.82 1359.15L3882.81 1384.64L3869.3 1413.14L3855.29 1420.63L3844.78 1424.63L3840.28 1435.63H3827.77V1457.62L3818.76 1453.63L3777.73 1497.61L3766.72 1523.61H3751.7L3744.2 1542.6H3730.69L3722.68 1564.6L3705.16 1608.09L3649.62 1644.08L3637.61 1628.58L3620.59 1650.57L3592.07 1669.07L3585.06 1644.08L3570.05 1620.58L3545.53 1644.08L3535.02 1656.07L3526.51 1685.57L3514.5 1707.06L3505.99 1747.55L3477.97 1757.05L3464.96 1743.05L3458.95 1753.05H3441.94L3437.94 1735.55H3427.93V1747.55H3395.4V1735.55L3386.39 1731.05V1743.05H3375.88V1735.55L3367.38 1717.06L3353.36 1724.06L3348.36 1735.55L3342.85 1717.06H3332.35V1731.05L3249.77 1707.06L3152.69 1669.07L3062.61 1635.08L2891.47 1573.59L2820.91 1540.1V1521.61L2799.89 1499.61L2787.38 1484.62L2773.37 1462.12L2744.34 1446.63L2707.81 1441.63L2672.78 1468.12L2638.25 1493.61L2610.73 1499.61L2527.66 1540.1L2450.59 1582.09L2404.55 1594.59L2354.51 1606.59L2306.97 1594.59L2251.42 1574.59L2174.86 1528.61L2169.35 1504.11L2150.34 1462.12L2128.32 1423.13L2114.31 1405.14L2100.29 1394.14L2088.78 1379.14H2076.27H2065.76L2053.25 1356.65L2023.73 1324.66L1991.2 1314.16C1940.49 1334.32 1838.37 1374.55 1835.57 1374.15C1832.77 1373.75 1810.05 1397.31 1799.04 1409.14L1774.52 1417.63L1748.99 1441.63L1689.94 1473.12L1663.92 1478.12L1655.91 1490.62L1615.88 1498.61L1603.37 1517.61L1590.36 1522.11L1575.35 1540.6L1487.77 1517.61L1416.21 1522.11H1368.17L1322.63 1529.61L1276.59 1537.1L1247.07 1551.1H1233.05L1185.01 1563.1H1134.97L1094.94 1584.09L1057.9 1601.59L1013.37 1633.58L968.828 1655.07H945.809L927.293 1672.07L878.752 1685.07L845.723 1695.56L820.702 1710.06L790.676 1695.56L763.653 1685.07L743.636 1695.56L728.123 1691.56L706.605 1685.07L689.09 1672.07L662.567 1655.07L631.04 1642.58L614.026 1625.58L568.987 1579.09L541.964 1584.09L507.935 1573.09L459.394 1615.58L398.342 1691.56L377.324 1685.07L312.268 1743.55L280.241 1752.55L222.692 1778.54L189.163 1811.03L136.618 1868.02L79.0692 1892.01Z" fill="black"/>
<path d="M79.0692 1892.01L4.00024 1935V0H4100V1180L4091.49 1188.19L4072.48 1205.69L4056.46 1213.69L4036.95 1231.18L4017.93 1249.68L3998.91 1258.18L3992.41 1275.67L3972.89 1269.67L3920.85 1323.16L3893.82 1359.15L3882.81 1384.64L3869.3 1413.14L3855.29 1420.63L3844.78 1424.63L3840.28 1435.63H3827.77V1457.62L3818.76 1453.63L3777.73 1497.61L3766.72 1523.61H3751.7L3744.2 1542.6H3730.69L3722.68 1564.6L3705.16 1608.09L3649.62 1644.08L3637.61 1628.58L3620.59 1650.57L3592.07 1669.07L3585.06 1644.08L3570.05 1620.58L3545.53 1644.08L3535.02 1656.07L3526.51 1685.57L3514.5 1707.06L3505.99 1747.55L3477.97 1757.05L3464.96 1743.05L3458.95 1753.05H3441.94L3437.94 1735.55H3427.93V1747.55H3395.4V1735.55L3386.39 1731.05V1743.05H3375.88V1735.55L3367.38 1717.06L3353.36 1724.06L3348.36 1735.55L3342.85 1717.06H3332.35V1731.05L3249.77 1707.06L3152.69 1669.07L3062.61 1635.08L2891.47 1573.59L2820.91 1540.1V1521.61L2799.89 1499.61L2787.38 1484.62L2773.37 1462.12L2744.34 1446.63L2707.81 1441.63L2672.78 1468.12L2638.25 1493.61L2610.73 1499.61L2527.66 1540.1L2450.59 1582.09L2404.55 1594.59L2354.51 1606.59L2306.97 1594.59L2251.42 1574.59L2174.86 1528.61L2169.35 1504.11L2150.34 1462.12L2128.32 1423.13L2114.31 1405.14L2100.29 1394.14L2088.78 1379.14H2076.27H2065.76L2053.25 1356.65L2023.73 1324.66L1991.2 1314.16C1940.49 1334.32 1838.37 1374.55 1835.57 1374.15C1832.77 1373.75 1810.05 1397.31 1799.04 1409.14L1774.52 1417.63L1748.99 1441.63L1689.94 1473.12L1663.92 1478.12L1655.91 1490.62L1615.88 1498.61L1603.37 1517.61L1590.36 1522.11L1575.35 1540.6L1487.77 1517.61L1416.21 1522.11H1368.17L1322.63 1529.61L1276.59 1537.1L1247.07 1551.1H1233.05L1185.01 1563.1H1134.97L1094.94 1584.09L1057.9 1601.59L1013.37 1633.58L968.828 1655.07H945.809L927.293 1672.07L878.752 1685.07L845.723 1695.56L820.702 1710.06L790.676 1695.56L763.653 1685.07L743.636 1695.56L728.123 1691.56L706.605 1685.07L689.09 1672.07L662.567 1655.07L631.04 1642.58L614.026 1625.58L568.987 1579.09L541.964 1584.09L507.935 1573.09L459.394 1615.58L398.342 1691.56L377.324 1685.07L312.268 1743.55L280.241 1752.55L222.692 1778.54L189.163 1811.03L136.618 1868.02L79.0692 1892.01Z" fill="black" fill-opacity="0.2"/>
</g>
<defs>
<filter id="filter0_dd_7_17" x="0.000244141" y="0" width="4104" height="1943" filterUnits="userSpaceOnUse" color-interpolation-filters="sRGB">
<feFlood flood-opacity="0" result="BackgroundImageFix"/>
<feColorMatrix in="SourceAlpha" type="matrix" values="0 0 0 0 0 0 0 0 0 0 0 0 0 0 0 0 0 0 127 0" result="hardAlpha"/>
<feOffset dy="4"/>
<feGaussianBlur stdDeviation="2"/>
<feComposite in2="hardAlpha" operator="out"/>
<feColorMatrix type="matrix" values="0 0 0 0 0 0 0 0 0 0 0 0 0 0 0 0 0 0 0.25 0"/>
<feBlend mode="normal" in2="BackgroundImageFix" result="effect1_dropShadow_7_17"/>
<feColorMatrix in="SourceAlpha" type="matrix" values="0 0 0 0 0 0 0 0 0 0 0 0 0 0 0 0 0 0 127 0" result="hardAlpha"/>
<feOffset dy="4"/>
<feGaussianBlur stdDeviation="2"/>
<feComposite in2="hardAlpha" operator="out"/>
<feColorMatrix type="matrix" values="0 0 0 0 0 0 0 0 0 0 0 0 0 0 0 0 0 0 0.25 0"/>
<feBlend mode="normal" in2="effect1_dropShadow_7_17" result="effect2_dropShadow_7_17"/>
<feBlend mode="normal" in="SourceGraphic" in2="effect2_dropShadow_7_17" result="shape"/>
</filter>
</defs>
</svg>
